<svg width="25" height="22" viewBox="0 0 25 22" fill="none" xmlns="http://www.w3.org/2000/svg">
<path d="M24.0829 -0.222168H0.0829468V23.7778H24.0829V-0.222168Z" fill="#0052CC"/>
<path d="M19.2239 9.66416C19.2239 8.90386 19.1187 8.21001 18.9082 7.58261C18.6976 6.95587 18.3918 6.41838 17.9901 5.97145C17.5884 5.52452 17.1039 5.17466 16.5365 4.92058C15.9691 4.66714 15.3345 4.5401 14.6332 4.5401C13.9444 4.5401 13.3097 4.66324 12.7299 4.91016C12.2291 5.1232 11.7932 5.40595 11.4207 5.75776L10.8602 8.5996L10.0537 8.2719C9.98328 8.61655 9.94653 8.97357 9.94653 9.34297C9.94653 10.1033 10.0711 10.7802 10.3196 11.3744C10.5681 11.9679 10.9063 12.4747 11.3335 12.895C11.7608 13.3152 12.2584 13.6357 12.8258 13.8553C13.3932 14.0755 13.996 14.1856 14.6338 14.1856C15.5014 14.1856 16.3079 13.9856 17.054 13.5855C17.8002 13.1855 18.3644 12.5914 18.7468 11.8043L16.9102 10.8636C16.6044 11.3704 16.2693 11.7209 15.9056 11.9144C15.5419 12.1079 15.1626 12.2044 14.7671 12.2044C14.2059 12.2044 13.7245 12.0011 13.3228 11.5939C12.9211 11.1867 12.6944 10.6636 12.6439 10.0231H19.2245V9.66416H19.2239ZM12.662 8.38331C12.7511 7.82302 12.9678 7.3826 13.3122 7.06272C13.6566 6.74283 14.0901 6.58256 14.6133 6.58256C15.0598 6.58256 15.4615 6.72263 15.8184 7.00278C16.1753 7.28292 16.4051 7.74354 16.5072 8.38331H12.662Z" fill="white"/>
<path d="M9.92276 7.14238C9.68671 7.08896 9.47931 7.06225 9.30119 7.06225C8.7145 7.06225 8.29037 7.27594 8.02879 7.70267C7.76721 8.12941 7.63642 8.68318 7.63642 9.36335V13.9662H4.93903V4.76049H7.4639L7.5212 5.90127H7.55919C7.91668 5.43414 8.29597 5.0908 8.69769 4.87059C9.0994 4.65039 9.50423 4.54028 9.91217 4.54028C10.142 4.54028 10.3556 4.567 10.553 4.62042C10.7505 4.67384 10.9386 4.74746 11.1173 4.84063L10.6197 7.36194C10.3911 7.26877 10.1588 7.19515 9.92276 7.14238Z" fill="white"/>
<path d="M19.3181 19.014V16.4719L4.84525 16.4719V19.014L19.3181 19.014Z" fill="white"/>
</svg>
